<svg width="50" height="98" viewBox="0 0 50 98" fill="none" xmlns="http://www.w3.org/2000/svg">
<path fill-rule="evenodd" clip-rule="evenodd" d="M23.0561 56.8006C23.0981 56.809 23.14 56.8163 23.1817 56.8235C23.446 56.8691 23.6978 56.9127 23.8575 57.2322C23.7848 57.4321 23.7068 57.6321 23.6281 57.8336L23.628 57.8338C23.4398 58.3157 23.2481 58.8067 23.1177 59.3282C22.7479 60.8078 23.3027 61.7942 24.7823 62.1024C25.3988 62.2257 26.0152 62.2874 26.6317 62.2257C27.6181 62.1024 27.8647 62.5956 28.0497 63.4587C28.3579 65.3082 28.1113 67.0344 27.3715 68.7605C27.2327 69.0612 27.0853 69.3532 26.9389 69.6431L26.9388 69.6434C26.6951 70.126 26.4544 70.6025 26.2618 71.1032C24.0425 76.3433 23.4876 81.4602 27.0633 86.3921C27.9264 87.6251 28.4812 89.043 28.6045 90.5842C28.7894 92.557 28.9127 94.5914 28.2962 96.5025C28.1113 97.119 28.0497 97.6738 28.7894 97.9204C29.4676 98.1054 29.8375 97.6738 30.0841 97.119C30.269 96.6258 30.454 96.071 30.5156 95.5161C30.9471 91.5706 30.454 87.81 28.0497 84.481C26.755 82.6932 26.2618 80.6587 26.3235 78.4394C26.4468 75.7885 27.1866 73.2609 28.4195 70.9182C29.7142 68.3906 30.454 65.8014 29.8375 62.9655C29.6525 62.1641 29.8375 61.7942 30.5773 61.3627C31.9952 60.5612 32.1185 59.4515 31.0704 58.0953C30.9081 57.8865 30.702 57.7039 30.4885 57.5146C30.1345 57.201 29.7599 56.869 29.5292 56.3691C34.2762 55.1978 38.345 52.8551 41.6124 49.2795C47.654 42.6831 50.1199 34.8537 49.5035 26.0379C49.0719 18.4551 46.2361 11.7353 40.5644 6.43354C35.016 1.25504 28.4195 -0.964323 20.7751 0.453601C15.2267 1.50163 10.7263 4.39913 7.08903 8.6529C-0.86367 18.0235 -2.34324 32.3877 3.76 43.4228C7.95212 51.0673 14.1787 55.8759 23.0561 56.8006ZM27.9264 59.6981C27.7236 59.715 27.4977 59.7736 27.2677 59.8332C26.6585 59.9912 26.0203 60.1567 25.707 59.5748C25.3571 58.9918 25.9448 58.1881 26.4268 57.5289L26.5084 57.4171C26.623 57.4908 26.7376 57.5633 26.8515 57.6355C27.5963 58.1072 28.3164 58.5634 28.8511 59.205C28.7446 59.7373 28.3623 59.718 28.0615 59.7028C28.0139 59.7004 27.9684 59.6981 27.9264 59.6981ZM2.34207 28.6888C2.46537 21.0443 4.74638 14.2629 10.1715 8.77619C18.9873 -0.101239 32.2418 0.268654 40.5027 9.70093C45.7429 15.6809 47.7773 22.8321 47.2225 30.7232C46.7293 37.4429 44.325 43.3612 39.5163 48.1698C30.6389 57.1089 17.3227 56.6157 9.0618 47.0601C4.49978 41.7583 2.46537 35.5318 2.34207 28.6888ZM39.7609 42.9913C40.0691 43.1762 40.3157 43.1762 40.6239 42.9913C40.9938 42.8063 41.1788 42.4981 41.3637 42.1898C42.7816 39.1074 43.953 35.9633 44.0146 32.5726C44.0146 31.4013 43.8913 30.23 43.4598 29.0586C43.2748 28.6271 42.9049 28.3805 42.4118 28.5038C41.9186 28.6271 41.7336 28.997 41.7336 29.4902L41.9186 30.5998C42.1652 31.9561 42.1652 33.3124 41.9186 34.6687C41.487 36.9497 40.6856 39.1074 39.7609 41.2034C39.7095 41.3576 39.6366 41.5011 39.5647 41.6428C39.4641 41.8411 39.3653 42.0358 39.3293 42.2515C39.2677 42.4981 39.4526 42.8063 39.7609 42.9913ZM10.4768 19.0716C10.2919 19.688 10.0453 20.1812 9.36714 19.9963C8.689 19.8113 8.62736 19.1949 8.689 18.5784C9.42879 16.2357 10.2919 13.8314 11.9564 11.8586C12.4496 11.3038 12.9428 10.749 13.4976 10.2558C13.9292 9.82423 14.484 9.63928 14.9772 10.1325C15.4704 10.6257 15.1621 11.1189 14.7306 11.5504C12.4496 13.5848 11.2783 16.2357 10.4768 19.0716ZM9.74234 22.8321C9.68069 22.3389 9.4341 21.969 8.87926 21.9074C8.32442 21.8457 7.89288 22.2156 7.83123 22.7705C7.76958 23.3253 8.13947 23.6952 8.69431 23.7569C9.24915 23.8185 9.61904 23.5103 9.74234 22.8321ZM39.5782 45.149C39.3933 45.7655 39.0234 46.0121 38.4686 45.8888C37.9137 45.7655 37.5438 45.4572 37.7288 44.8407C37.8521 44.3475 38.2836 43.9776 38.8385 44.1009C39.3933 44.2242 39.6399 44.6558 39.5782 45.149Z" fill="white"/>
</svg>
