<svg width="216" height="144" viewBox="0 0 216 144" fill="none" xmlns="http://www.w3.org/2000/svg">
<g clip-path="url(#clip0_363_705)">
<path d="M26.576 99.719C29.8747 102.185 31.5877 105.782 29.421 108.571C29.421 108.571 27.6443 110.935 25.0946 114.313L6.38486 99.9587C7.45924 98.3604 9.08341 96.2481 9.08341 96.2481C11.7003 92.5411 15.2428 93.1191 17.4407 94.7359C19.1309 95.9671 19.7888 97.8969 19.2894 99.5514C21.4249 97.9062 23.8666 97.635 26.576 99.719ZM14.5177 102.619C14.8262 102.197 15.2908 101.605 15.2908 101.605C16.1383 100.425 15.7181 98.3217 14.6174 97.4726C13.5166 96.6234 12.0088 97.6695 11.5479 98.3429C11.5479 98.3429 11.0869 99.0162 10.626 99.6895L14.5177 102.619ZM24.7285 102.331C23.0383 101.1 21.0192 101.679 20.0829 102.7C20.0829 102.7 19.1538 103.883 18.5439 104.89L24.3036 109.369C24.8462 108.692 25.4596 107.767 25.4596 107.767C27.2398 105.485 26.4187 103.562 24.7285 102.331Z" fill="white"/>
<path d="M41.532 93.9157L39.2092 96.8751L35.5239 94.9159L33.1939 97.7124L35.716 101.111L32.6657 104.265L18.1478 84.8286L22.0599 80.8195L41.532 93.9157ZM32.374 92.1168L23.4296 85.901L30.5337 94.8916L32.374 92.1168Z" fill="white"/>
<path d="M42.6501 93.2949L26.5788 75.7225L29.6471 72.975L42.1951 86.7038L44.8697 84.3002L34.2075 72.5285L37.2758 69.7811L47.9379 81.5527L50.0627 79.6631L37.6815 66.0086L40.7498 63.2611L56.7358 80.7557L42.6501 93.2949Z" fill="white"/>
<path d="M50.7994 61.1844L54.7247 66.7243L57.8963 64.462L60.2551 67.8674L57.0836 70.1297L59.2683 73.2979L64.4266 69.7234L67.2187 73.681L62.0605 77.2555L58.254 79.954L55.4618 75.9964L51.5328 70.3751L49.174 66.9697L46.9928 63.8829L44.6304 60.3961L48.4369 57.6976L53.5951 54.1231L55.954 57.5285L50.7994 61.1844Z" fill="white"/>
<path d="M68.0878 72.9896L56.2985 52.3712L59.8925 50.4167L67.2295 57.2749L64.8491 47.8306L68.7517 45.4543L80.9984 65.3179L77.3371 67.6019L70.3338 55.342L72 63.4303L69.8393 64.5053L65.3473 60.9494L71.1885 70.9753L68.0878 72.9896Z" fill="white"/>
<path d="M75.3156 42.2258L81.601 47.4981L81.092 39.6851L85.9885 37.5913L87.2538 62.5112L82.3573 64.6049L81.2457 52.411L70.6712 44.4716L75.3156 42.2258Z" fill="white"/>
<path d="M124.9 46.4001L126.26 53.1144L123.017 53.7475L122.618 52.1328L114.268 53.8078L114.666 55.4226L111.423 56.0557L110.063 49.3414L111.766 49.0212C111.773 43.634 110.694 37.7234 110.042 34.0793C109.729 32.5424 109.512 31.3277 109.479 30.5946L119.622 28.7586L123.523 46.7058L124.9 46.4001ZM115.01 48.3881L119.715 47.5271L116.629 33.2168L113.382 33.7685C114.166 38.5494 115.225 45.8484 115.01 48.3881Z" fill="white"/>
<path d="M125.021 39.8652C124.199 32.3924 126.153 28.4699 130.958 28.0126C132.097 27.8807 133.261 28.3189 134.199 29.1753C136.074 30.888 137.12 34.1882 137.247 38.9166C137.464 45.6814 135.66 49.2709 131.994 49.5962C126.205 50.0153 125.527 43.9238 125.021 39.8652ZM128.509 39.2212C129.048 44.013 129.815 44.7137 131.444 44.56C133.644 44.3811 133.89 40.6974 133.878 38.5758C133.809 35.1508 132.991 33.3097 132.146 32.6941C131.894 32.542 131.063 32.2522 130.9 32.2594C129.598 32.3986 127.816 32.8039 128.509 39.2212Z" fill="white"/>
<path d="M139.71 50.2344L139.57 26.734L142.914 26.5045L146.81 36.9429L150.431 26.3355L153.795 26.5948L154.74 49.8148L150.332 50.0096L150.856 35.9478L148.252 43.6536L145.551 43.6098L143.492 37.7425L143.553 50.2277L139.71 50.2344Z" fill="white"/>
<path d="M161.171 26.9217L163.306 36.3769L167.414 27.5435L172.671 28.0457L160.831 50.6882L155.575 50.186L160.541 40.4169L156.319 26.32L161.171 26.9217Z" fill="white"/>
<path d="M106.082 68.4532L101.959 69.5333L91.1513 24.8752L92.9291 24.3885L106.082 68.4532Z" fill="white"/>
<path d="M105.762 22.3521L78.7067 28.2821L78.9587 11.7837L96.9855 6.98736L105.762 22.3521Z" fill="white"/>
<path d="M101.613 33.9623L100.077 34.3567L96.0804 17.9645L96.7263 17.7727L101.613 33.9623Z" fill="white"/>
<path d="M101.445 37.561C102.122 37.5311 102.646 36.9598 102.616 36.2849C102.586 35.6101 102.013 35.0873 101.337 35.1172C100.661 35.1471 100.137 35.7184 100.167 36.3932C100.197 37.068 100.769 37.5909 101.445 37.561Z" fill="white"/>
<path d="M22.3767 43.5867C21.0394 44.7885 22.2098 49.0626 25.1293 52.1984C27.8746 55.097 30.4483 55.9626 31.8 55.0867C33.5526 54.0297 32.8528 52.9996 31.6055 50.6878C32.6487 50.2336 33.3618 49.7123 34.3941 49.0137C37.2499 52.5604 37.8453 56.7783 35.4121 59.0896C32.8972 61.4045 26.9347 61.5865 21.1811 55.3929C15.4275 49.1992 16.2005 42.6355 19.9326 40.1035C19.9326 40.1035 22.2879 37.8772 26.2144 39.7441L25.7127 43.1944C24.7259 43.0748 23.714 42.3849 22.3767 43.5867Z" fill="white"/>
<path d="M36.2059 40.037C41.9427 36.6002 45.0962 39.4808 46.2294 41.0631C47.0997 42.2489 48.4502 45.0459 47.9508 46.7004C47.3842 48.6843 45.5752 50.3151 43.9114 51.5313C43.5957 51.7901 40.8995 53.7049 40.5838 53.9638L26.5136 35.4051L30.5507 32.3699L36.2059 40.037ZM40.9727 23.9104L37.0918 26.7754L51.354 45.9786L55.2349 43.1135L40.9727 23.9104ZM44.1418 45.6445C44.1839 44.7448 43.5584 43.5481 43.2955 43.1516C42.8586 42.518 41.729 41.0172 38.3762 42.8794L42.3652 48.0084C43.3196 47.3948 44.1815 46.5405 44.1418 45.6445Z" fill="white"/>
<path d="M61.0496 39.5916L56.5828 42.1561L44.9603 21.6119C45.276 21.3531 48.1462 19.6754 48.5436 19.413C51.0164 17.9977 52.7234 17.759 54.7786 17.9946C56.5888 18.2411 58.7196 20.1874 59.5154 21.5398C60.489 23.2107 61.8935 27.2297 56.4232 31.1444L61.0496 39.5916ZM51.2037 22.2337L54.5685 28.0432C57.6548 25.703 56.6848 24.1135 56.3259 23.3948C56.063 22.9983 55.2815 21.9718 54.3692 21.6856C53.4569 21.3995 52.0764 21.6238 51.2037 22.2337Z" fill="white"/>
<path d="M21.9421 41.1573C20.6049 42.3591 21.7753 46.6332 24.6947 49.7689C27.4401 52.6675 30.0138 53.5332 31.3654 52.6572C33.1181 51.6003 32.4182 50.5702 31.171 48.2583C32.2141 47.8041 32.9272 47.2829 33.9596 46.5843C36.8154 50.1309 37.4108 54.3488 34.9775 56.6602C32.4626 58.9751 26.5001 59.157 20.7465 52.9634C14.9929 46.7698 15.766 40.206 19.4981 37.674C19.4981 37.674 21.8533 35.4478 25.7799 37.3147L25.2781 40.7649C24.2913 40.6453 23.2794 39.9555 21.9421 41.1573Z" fill="#E30613"/>
<path d="M35.8528 37.604C41.5896 34.1672 44.7432 37.0477 45.8764 38.63C46.7467 39.8159 48.0971 42.6129 47.5978 44.2673C47.0312 46.2513 45.2221 47.882 43.5583 49.0983C43.2426 49.3571 40.5465 51.2719 40.2308 51.5307L26.1606 32.9721L30.1976 29.9369L35.8528 37.604ZM40.5381 21.481L36.6571 24.346L50.9193 43.5492L54.8003 40.6841L40.5381 21.481ZM43.7888 43.2114C43.8308 42.3118 43.2054 41.1151 42.9425 40.7186C42.5056 40.085 41.376 38.5841 38.0232 40.4464L42.0122 45.5753C42.9665 44.9618 43.7468 44.1111 43.7888 43.2114Z" fill="#E30613"/>
<path d="M60.6149 37.1622L56.1446 39.6452L44.6073 19.1789C44.923 18.9201 47.7932 17.2424 48.1905 16.98C50.6634 15.5647 52.3704 15.326 54.4255 15.5616C56.2358 15.8081 58.3665 17.7544 59.1624 19.1067C60.136 20.7777 61.5405 24.7966 56.0701 28.7114L60.6149 37.1622ZM50.7691 19.8043L54.1338 25.6138C57.2201 23.2736 56.2502 21.6841 55.8913 20.9654C55.6284 20.5689 54.8469 19.5424 53.9346 19.2562C53.0223 18.9701 51.6418 19.1944 50.7691 19.8043Z" fill="#E30613"/>
<path d="M24.9391 97.8325C28.2378 100.298 29.9508 103.896 27.7841 106.685C27.7841 106.685 26.0074 109.049 23.4577 112.426L4.75156 98.1536C5.82594 96.5553 7.45011 94.443 7.45011 94.443C10.067 90.736 13.6095 91.314 15.8074 92.9309C17.4976 94.1621 18.1555 96.0919 17.6561 97.7463C19.8697 96.0161 22.2333 95.83 24.9391 97.8325ZM12.8844 100.814C13.1929 100.392 13.6575 99.8004 13.6575 99.8004C14.505 98.6202 14.0848 96.5167 12.9841 95.6675C11.8833 94.8184 10.3755 95.8645 9.91457 96.5378C9.91457 96.5378 9.45361 97.2111 8.99265 97.8845L12.8844 100.814ZM23.0916 100.444C21.4014 99.2132 19.3823 99.7921 18.446 100.813C18.446 100.813 17.5169 101.997 16.907 103.003L22.6667 107.482C23.2093 106.806 23.8227 105.881 23.8227 105.881C25.6029 103.598 24.7818 101.676 23.0916 100.444Z" fill="#E30613"/>
<path d="M39.8948 92.0292L37.572 94.9886L33.8867 93.0294L31.5567 95.8258L34.0788 99.224L31.0285 102.379L16.5106 82.9421L20.4227 78.933L39.8948 92.0292ZM30.7404 90.3118L21.796 84.0959L28.9001 93.0866L30.7404 90.3118Z" fill="#E30613"/>
<path d="M41.016 91.4899L24.9411 73.8361L28.0094 71.0886L40.5574 84.8174L43.232 82.4138L32.5734 70.7236L35.6417 67.9761L46.3039 79.7477L48.4286 77.8581L36.0438 64.1221L39.1121 61.3747L55.0981 78.8692L41.016 91.4899Z" fill="#E30613"/>
<path d="M49.162 59.2979L53.0874 64.8378L56.2589 62.5755L58.6177 65.9808L55.4462 68.2432L57.631 71.4114L62.7892 67.8369L65.5814 71.7945L60.4232 75.369L56.6166 78.0675L53.8244 74.1099L49.8954 68.4886L47.5366 65.0832L45.3554 61.9964L42.9966 58.591L46.8031 55.8925L51.9614 52.3181L54.3202 55.7235L49.162 59.2979Z" fill="#E30613"/>
<path d="M66.5323 71.0996L54.6613 50.4848L58.2553 48.5302L65.5923 55.3884L63.2119 45.9441L67.1145 43.5678L79.3612 63.4314L75.6999 65.7154L68.6966 53.4555L70.3628 61.5439L68.202 62.6189L63.7101 59.0629L69.633 69.0852L66.5323 71.0996Z" fill="#E30613"/>
<path d="M73.6784 40.3393L79.9638 45.6116L79.4548 37.7985L84.3513 35.7048L85.6166 60.6246L80.7201 62.7184L79.6085 50.5245L69.034 42.5851L73.6784 40.3393Z" fill="#E30613"/>
<path d="M123.266 44.595L124.626 51.3093L121.383 51.9424L120.984 50.3276L112.634 52.0027L113.033 53.6175L109.789 54.2506L108.429 47.5363L110.132 47.2161C110.14 41.8289 109.06 35.9183 108.409 32.2742C108.095 30.7373 107.878 29.5226 107.846 28.7894L117.988 26.9535L121.889 44.9007L123.266 44.595ZM113.372 46.5015L118.078 45.6405L114.992 31.3302L111.745 31.8819C112.532 36.7443 113.591 44.0433 113.372 46.5015Z" fill="#E30613"/>
<path d="M123.465 37.9751C122.644 30.5023 124.597 26.5798 129.402 26.1225C130.541 25.9905 131.706 26.4288 132.643 27.2851C134.518 28.9979 135.564 32.2981 135.691 37.0264C135.908 43.7913 134.104 47.3807 130.438 47.706C124.572 48.2103 123.89 42.0373 123.465 37.9751ZM126.872 37.3347C127.411 42.1265 128.178 42.8271 129.807 42.6735C132.007 42.4946 132.253 38.8108 132.241 36.6892C132.172 33.2643 131.354 31.4231 130.509 30.8075C130.257 30.6555 129.426 30.3657 129.263 30.3729C128.042 30.5085 126.183 30.9988 126.872 37.3347Z" fill="#E30613"/>
<path d="M138.073 48.348L137.933 24.8475L141.276 24.6181L145.173 35.0565L148.793 24.449L152.158 24.7084L153.025 48.0134L148.617 48.2083L149.14 34.1465L146.537 41.8523L143.836 41.8084L141.777 35.9412L141.838 48.4263L138.073 48.348Z" fill="#E30613"/>
<path d="M159.537 25.1167L161.673 34.5719L165.78 25.7385L171.037 26.2407L159.197 48.8832L153.941 48.381L158.907 38.6119L154.685 24.515L159.537 25.1167Z" fill="#E30613"/>
<path d="M104.527 66.5631L100.325 67.7283L89.5995 23.0665L91.3774 22.5798L104.527 66.5631Z" fill="#E30613"/>
<path d="M104.128 20.5469L77.0695 26.3955L77.3251 9.97856L95.3483 5.10077L104.128 20.5469Z" fill="#E30613"/>
<path d="M99.9758 32.0757L98.4393 32.4701L94.4467 16.1594L95.0925 15.9676L99.9758 32.0757Z" fill="#E30613"/>
<path d="M99.8081 35.6744C100.484 35.6445 101.008 35.0732 100.978 34.3984C100.949 33.7235 100.376 33.2007 99.7 33.2306C99.0238 33.2605 98.4998 33.8318 98.5296 34.5066C98.5594 35.1815 99.1318 35.7043 99.8081 35.6744Z" fill="#E30613"/>
<path d="M204.612 91.9301C176.219 76.8613 143.611 73.7321 112.949 83.1681C82.2012 92.5262 56.9479 113.313 41.843 141.65L35.961 134.401L26.6013 133.591C43.8153 101.161 72.701 77.4383 107.884 66.6598C143.067 55.8814 180.276 59.4601 212.772 76.7144L204.612 91.9301Z" fill="white"/>
<path d="M204.185 89.6633C175.792 74.5944 143.184 71.4653 112.522 80.9013C81.7739 90.2594 56.5207 111.046 41.4158 139.383L35.5337 132.134L26.174 131.324C43.388 98.8941 72.2738 75.1715 107.457 64.393C142.64 53.6145 179.848 57.1933 212.345 74.4476L204.185 89.6633Z" fill="#571D00"/>
<path d="M43.2873 124.364C44.9703 125.432 45.2944 127.214 44.3016 128.808C43.0784 130.74 41.2754 130.656 39.6776 129.666L36.3932 127.525C35.1328 126.765 34.1593 125.094 35.4605 123.078C36.6873 121.228 38.572 121.308 39.9177 122.146L43.2873 124.364ZM38.9177 123.578C38.4952 123.27 37.4196 122.991 36.8098 123.997C36.1964 124.922 36.8074 125.793 37.3116 126.097L40.6775 128.234C41.519 128.768 42.4206 128.81 42.9523 127.888C43.4133 127.215 43.2957 126.404 42.4542 125.87L38.9177 123.578Z" fill="white"/>
<path d="M42.6811 119.902L43.5286 118.722C44.8406 116.95 46.3952 116.962 47.8297 117.96C49.5199 119.191 49.6735 120.817 48.5992 122.415L46.6701 125.031L38.3007 118.871L41.5383 114.402L42.8059 115.325L40.5683 118.363L42.6811 119.902ZM46.484 122.672L47.3315 121.492C47.9485 120.648 47.7529 119.922 46.9114 119.388C46.1515 118.85 45.4132 118.801 44.7998 119.726L43.9523 120.907L46.484 122.672Z" fill="white"/>
<path d="M54.0992 115.479L50.6191 112.613L48.7537 114.818L52.2337 117.684L51.1485 119.038L43.1657 112.371L44.2509 111.017L47.5641 113.809L49.5112 111.601L46.198 108.809L47.2868 107.537L55.2696 114.203L54.0992 115.479Z" fill="white"/>
<path d="M58.1963 106.401C59.6489 107.806 59.6465 109.602 58.398 110.963C56.8339 112.583 55.0164 112.174 53.7344 110.924L50.9146 108.192C49.8882 107.177 49.1524 105.332 50.7945 103.627C52.2771 102.011 54.1797 102.498 55.2877 103.51L58.1963 106.401ZM54.0357 104.79C53.6948 104.478 52.69 103.951 51.9097 104.802C51.1295 105.653 51.5772 106.531 52.007 107.001L54.9084 109.73C55.6755 110.431 56.5026 110.639 57.2048 109.873C57.751 109.278 57.7966 108.46 57.1148 107.837L54.0357 104.79Z" fill="white"/>
<path d="M63.8745 105.334L61.4412 107.645L54.3167 100.043L56.6755 97.8985C58.0872 96.5302 59.5673 96.7096 60.7678 97.9625C61.368 98.5889 61.6489 99.3927 61.284 100.388L61.3692 100.466C62.3307 100.016 63.3319 100.461 64.0173 101.165C65.303 102.496 65.2081 104.051 63.8745 105.334ZM57.6275 99.0807L56.6059 100.024L58.4918 101.981L59.5133 101.038C60.2192 100.354 60.1904 99.702 59.5902 99.0756C59.0716 98.4456 58.4149 98.393 57.6275 99.0807ZM60.6213 102.05L59.5217 103.078L61.5817 105.272L62.6812 104.244C63.4651 103.475 63.1878 102.753 62.6692 102.123C62.069 101.496 61.4088 101.362 60.6213 102.05Z" fill="white"/>
<path d="M66.9394 102.505L60.3682 94.4705L61.7127 93.4316L66.1207 98.7869C66.1207 98.7869 66.1207 98.7869 66.2023 98.7833C65.9958 97.813 65.793 96.9241 65.5865 95.9538C65.2696 94.3354 64.871 92.7206 64.4725 91.1059L65.7353 90.0706L72.3065 98.1053L70.962 99.1442L66.6429 93.9482C66.7569 94.6778 66.9526 95.4037 67.1482 96.1296L68.2802 101.385L66.9394 102.505Z" fill="white"/>
<path d="M80.0455 90.0093C80.5965 91.3725 80.0863 92.7826 78.8163 93.6549C77.0708 94.8748 75.3242 94.2174 74.2763 92.7129L72.0027 89.3854C71.0435 88.0403 71.0423 86.1631 72.8694 84.9396C74.2174 83.9822 75.7012 84.2431 76.7203 85.0958L75.6351 86.4497C75.209 86.0605 74.4599 85.7671 73.7469 86.2884C72.8742 86.8983 72.9954 87.7907 73.3471 88.3465L75.706 91.7519C76.2281 92.4634 76.9808 92.8382 77.8535 92.2283C78.4885 91.7921 78.7046 91.1296 78.3457 90.4109L80.0455 90.0093Z" fill="white"/>
<path d="M85.0955 89.5412L82.2253 91.2188L76.9242 82.3117L79.6312 80.6413C81.3058 79.6694 82.7151 80.0968 83.5962 81.5271C84.0368 82.2422 84.158 83.1346 83.541 83.9781L83.5446 84.0596C84.5986 83.8497 85.4437 84.4653 85.973 85.3398C87.0318 87.0886 86.6105 88.658 85.0955 89.5412ZM82.5518 85.6542L81.2782 86.4451L82.8663 89.0684L84.14 88.2775C85.0979 87.7454 84.9803 86.9344 84.5397 86.2193C84.0956 85.4228 83.4281 85.1258 82.5518 85.6542ZM80.2674 82.0823L79.1534 82.7845L80.5639 85.0892L81.7596 84.3833C82.5542 83.8585 82.6887 83.1996 82.2481 82.4845C81.7295 81.8544 81.1473 81.6353 80.2674 82.0823Z" fill="white"/>
<path d="M92.7672 81.7746C93.6627 83.5306 93.0853 85.2702 91.4035 86.0791C89.406 87.1468 87.8082 86.1564 86.9979 84.4782L85.2069 80.9661C84.4963 79.6916 84.4915 77.7329 86.5706 76.6616C88.49 75.6789 90.1694 76.6657 90.8837 78.0217L92.7672 81.7746ZM89.2871 78.9085C89.0206 78.4305 88.3352 77.7262 87.292 78.1805C86.2525 78.7161 86.3773 79.6901 86.6474 80.2495L88.5201 83.758C88.9678 84.636 89.7241 85.0923 90.6856 84.6417C91.4059 84.2833 91.6964 83.4543 91.2522 82.6577L89.2871 78.9085Z" fill="white"/>
<path d="M95.4023 84.025L91.2188 74.4972L92.7446 73.8584L95.5596 80.1819C95.5596 80.1819 95.5596 80.1819 95.6412 80.1783C95.7612 79.1936 95.7216 78.2975 95.76 77.3164C95.8513 75.6799 95.9425 74.0435 96.0337 72.4071L97.4778 71.7719L101.661 81.2997L100.139 82.02L97.413 75.8558C97.3638 76.5925 97.3146 77.3293 97.2654 78.066L96.928 83.3862L95.4023 84.025ZM91.082 71.4017L92.2848 70.8588C92.4661 71.2589 93.0555 71.6409 93.6161 71.3713C94.1767 71.1016 94.2295 70.4463 94.0482 70.0463L95.1694 69.507C95.4503 70.3107 95.5151 71.777 93.9894 72.4158C92.5525 73.2139 91.5261 72.1983 91.082 71.4017Z" fill="white"/>
<path d="M106.242 79.4648L102.942 69.5714L104.553 69.0105L106.726 75.6073C106.726 75.6073 106.726 75.6073 106.808 75.6036C107.009 74.6153 107.051 73.7156 107.171 72.7309C107.426 71.0872 107.684 69.525 107.938 67.8814L109.471 67.4055L112.771 77.2989L111.16 77.8598L108.995 71.426C108.864 72.1663 108.815 72.9031 108.684 73.6434L107.853 78.9038L106.242 79.4648Z" fill="white"/>
<path d="M118.676 75.8135L117.584 71.4543L114.752 72.1509L115.844 76.5101L114.226 76.9081L111.654 66.8193L113.353 66.4177L114.439 70.6139L117.27 69.9174L116.185 65.7211L117.803 65.3231L120.376 75.4119L118.676 75.8135Z" fill="white"/>
<path d="M123.464 65.7259L125.156 74.3844L123.452 74.7046L121.761 66.046L119.49 66.4729L119.177 64.936L125.337 63.6842L125.65 65.2211L123.464 65.7259Z" fill="white"/>
<path d="M128.4 73.7513L126.963 63.4491L132.652 62.6262L132.883 64.1668L128.82 64.7545L129.187 67.5134L132.683 67.0323L132.914 68.5729L129.419 69.0539L129.79 71.8942L133.853 71.3065L134.088 72.9285L128.4 73.7513Z" fill="white"/>
<path d="M138.071 68.6713L136.524 68.8214L136.864 72.8057L135.153 72.963L134.288 62.6355L137.386 62.4169C139.341 62.2488 140.609 63.1722 140.788 65.3681C141.023 66.9901 140.19 68.4961 138.071 68.6713ZM137.614 63.876L136.23 64.0188L136.455 67.2736L137.921 67.1272C138.901 67.0839 139.362 66.4106 139.315 65.3516C139.105 64.2998 138.59 63.7512 137.614 63.876Z" fill="white"/>
<path d="M145.672 72.2531L142.485 72.3124L142.273 61.956L143.987 61.8802L144.085 65.9569L145.555 65.8919C147.762 65.876 148.718 67.1396 148.797 68.9318C148.809 71.0534 147.635 72.248 145.672 72.2531ZM145.549 67.6062L144.079 67.6712L144.135 70.7703L145.604 70.7054C146.665 70.6584 147.048 70.0702 147.086 69.089C147.043 68.1115 146.61 67.5593 145.549 67.6062Z" fill="white"/>
<path d="M149.843 72.232L150.202 61.8504L156.019 62.0829L155.924 63.6379L151.828 63.4925L151.706 66.273L155.226 66.3622L155.132 67.9172L151.611 67.828L151.492 70.6899L155.588 70.8353L155.497 72.4718L149.843 72.232Z" fill="white"/>
<path d="M160.325 68.8302L158.844 68.6508L158.446 72.5862L156.721 72.4176L157.655 62.0922L160.775 62.3623C162.745 62.5201 163.86 63.6951 163.627 65.8275C163.546 67.7083 162.376 68.9844 160.325 68.8302ZM160.683 63.9988L159.289 63.8972L159.021 67.0922L160.416 67.1938C161.402 67.3134 161.949 66.7179 162.069 65.7332C162.107 64.752 161.67 64.1184 160.683 63.9988Z" fill="white"/>
</g>
<defs>
<clipPath id="clip0_363_705">
<rect width="208.683" height="134.053" fill="white" transform="translate(0.822266 9.27975) rotate(-2.53135)"/>
</clipPath>
</defs>
</svg>
