<svg width="136" height="22" viewBox="0 0 136 22" fill="none" xmlns="http://www.w3.org/2000/svg">
<path d="M108.533 20.766H105.889C105.889 20.9233 105.94 21.0806 105.94 21.238H109.042V1.88831H108.584V20.766H108.533Z" fill="#5A1404"/>
<path d="M114.585 8.18088V20.766H111.839V21.238H115.043V8.86257C114.89 8.65282 114.738 8.39063 114.585 8.18088Z" fill="#5A1404"/>
<path d="M124.198 20.766H121.553C121.553 20.9233 121.604 21.0806 121.604 21.238H124.706V1.88831H124.249V20.766H124.198Z" fill="#5A1404"/>
<path d="M52.5882 5.1913H54.2157C54.5208 5.1913 54.7751 5.1913 55.0294 5.24374C54.7243 4.92911 54.114 4.71936 52.9951 4.71936H52.0796V9.01928C52.2322 8.96685 52.3847 8.91441 52.5373 8.86197V5.1913H52.5882Z" fill="#5A1404"/>
<path d="M60.2684 5.97847C60.2684 8.39062 59.4038 10.1211 57.522 11.4845L57.7763 12.0088C59.5055 10.8028 60.6752 9.17719 60.6752 6.92235C60.6752 5.97847 60.4718 5.1919 60.1158 4.45776C60.2175 4.98214 60.2684 5.45409 60.2684 5.97847Z" fill="#5A1404"/>
<path d="M53.1478 13.6344C52.8426 13.7393 52.4866 13.8966 52.0797 14.0015V20.766H49.1299V21.238H52.5374V14.421C52.7917 14.3161 53.0969 14.2637 53.3512 14.1588L53.1478 13.6344Z" fill="#5A1404"/>
<path d="M8.23906 4.66752C7.88305 4.45777 7.52703 4.40533 7.17102 4.40533C4.72978 4.40533 4.22119 7.6565 4.22119 10.3308C4.22119 12.0089 4.42463 13.8442 5.13666 15.0503C4.8315 14.0015 4.72978 12.6906 4.72978 11.3796C4.72978 7.86625 5.54353 4.7724 8.23906 4.66752Z" fill="#5A1404"/>
<path d="M26.3959 4.87726H24.8701V5.3492H26.3959V4.87726Z" fill="#5A1404"/>
<path d="M34.838 4.87726H31.2779V20.766H28.3789V21.2379H31.7865V5.3492H34.838V4.87726Z" fill="#5A1404"/>
<path d="M15.1052 10.3308C15.1052 16.9905 12.0536 21.1331 7.17117 21.1331C6.91687 21.1331 6.61172 21.1331 6.35742 21.0807C6.96773 21.2904 7.67976 21.3953 8.39179 21.3953C13.0708 21.3953 15.6138 17.3051 15.6138 11.3796C15.6138 8.96746 15.2069 6.86993 14.3932 5.24435C14.8509 6.71262 15.1052 8.39064 15.1052 10.3308Z" fill="#5A1404"/>
<path d="M25.4804 20.766H17.5464V21.238H25.9381V17.777H25.4804V20.766Z" fill="#5A1404"/>
<path d="M79.2383 17.5673L79.6452 15.9942L79.0857 1.88831H78.5771L79.2383 17.5673Z" fill="#5A1404"/>
<path d="M20.9538 1.88831H20.4961V15.7844H20.9538V1.88831Z" fill="#5A1404"/>
<path d="M130.402 1.88831V20.766H127.503V21.238H130.911V1.88831H130.402Z" fill="#5A1404"/>
<path d="M65.8114 9.91135L65.3536 20.766H57.623L57.8265 21.238H65.8622L66.2691 11.3796C66.1165 10.8552 65.9639 10.3833 65.8114 9.91135Z" fill="#5A1404"/>
<path d="M74.2543 9.91135C73.4406 12.4808 72.7285 14.9978 72.4234 16.5185L72.3217 17.0954H69.5244C69.5753 17.2527 69.5753 17.41 69.6261 17.5673H72.8303C73.1354 16.2039 73.6949 14.054 74.4069 11.7991L74.2543 9.91135Z" fill="#5A1404"/>
<path d="M86.9687 8.54796L86.6636 7.39432L85.6973 11.2747H86.2567L86.9687 8.54796Z" fill="#5A1404"/>
<path d="M94.242 18.0917V16.4136L90.3767 1.94073H89.9189L94.242 18.0917Z" fill="#5A1404"/>
<path d="M88.7491 15.8893H84.5786L83.358 20.766H76.5938V21.2379H83.7649L84.9855 16.3612H88.9016L88.7491 15.8893Z" fill="#5A1404"/>
<path d="M98.9208 8.18088V20.766H91.6479L91.7497 21.238H99.3785V8.86257C99.226 8.65282 99.0734 8.39063 98.9208 8.18088Z" fill="#5A1404"/>
<path d="M39.7725 15.7844H40.2302V13.1101H46.0281V9.64914H45.5704V12.6381H39.7725V15.7844Z" fill="#5A1404"/>
<path d="M46.6384 1.94073V4.87727H39.7725V7.65649H40.2302V5.34921H47.0962V1.94073H46.6384Z" fill="#5A1404"/>
<path d="M46.6381 20.766H36.8223V21.238H47.0958V17.8295H46.6381V20.766Z" fill="#5A1404"/>
<path d="M104.566 10.0155C101.922 5.24361 99.9383 2.77902 97.9548 0.629059H94.9541V19.9787H98.1582V5.92531C100.345 8.65209 104.261 15.1544 104.719 20.0312H107.821V0.681497H104.617V10.0155H104.566Z" fill="#5A1404"/>
<path d="M120.231 10.0155C117.586 5.24361 115.603 2.77902 113.619 0.629059H110.619V19.9787H113.823V5.92531C116.01 8.65209 119.926 15.1544 120.384 20.0312H123.486V0.681497H120.282V10.0155H120.231Z" fill="#5A1404"/>
<path d="M59.505 5.97847C59.505 2.88462 57.3689 0.68222 53.3002 0.68222H47.96V20.0319H51.3675V13.4247C52.1813 13.1625 52.8933 12.9003 53.5545 12.6381L56.5551 19.9794H60.5222L56.5551 11.2223C58.5386 9.96376 59.505 8.44306 59.505 5.97847ZM51.3675 3.93338H52.995C55.0294 3.93338 56.0974 4.71995 56.0974 6.13578C56.0974 8.54793 53.4019 9.43938 51.3675 10.0686V3.93338Z" fill="#5A1404"/>
<path d="M7.17113 0.315155C2.54296 0.315155 0 4.45777 0 10.3308C0 16.2563 2.54296 20.3465 7.17113 20.3465C11.8502 20.3465 14.3931 16.2563 14.3931 10.3308C14.3931 4.45777 11.8502 0.315155 7.17113 0.315155ZM7.17113 17.0429C4.37388 17.0429 3.50928 13.8966 3.50928 10.3308C3.50928 6.76504 4.37388 3.61876 7.17113 3.61876C9.96839 3.61876 10.8839 6.76504 10.8839 10.3308C10.8839 13.8966 9.96839 17.0429 7.17113 17.0429Z" fill="#5A1404"/>
<path d="M19.7337 0.68222H16.3262V20.0319H24.7179V16.571H19.7337V0.68222Z" fill="#5A1404"/>
<path d="M129.691 0.68222H126.283V20.0319H129.691V0.68222Z" fill="#5A1404"/>
<path d="M23.6494 0.68222V4.14313H27.1587V20.0319H30.5662V4.14313H34.0247V0.68222H23.6494Z" fill="#5A1404"/>
<path d="M73.6951 0.68222C72.4236 3.88094 71.3047 6.7126 69.9824 11.8515C68.6601 6.66016 67.592 3.88094 66.2697 0.68222H62.201L61.3872 20.0319H64.5913L65.2016 6.03091C66.524 9.54426 67.8463 14.0539 68.304 16.4136H71.6099C72.0676 14.1064 73.39 9.5967 74.7123 6.03091L75.3226 20.0319H78.5267L77.713 0.68222H73.6951Z" fill="#5A1404"/>
<path d="M83.9684 15.1551H89.3086L90.5293 20.0319H93.9368L88.8509 0.68222H84.5279L79.3911 20.0319H82.7987L83.9684 15.1551ZM86.664 4.35289L88.5966 12.0613H84.7822L86.664 4.35289Z" fill="#5A1404"/>
<path d="M35.6016 0.68222V20.0319H45.8751V16.571H39.0091V11.8515H44.8071V8.44306H39.0091V4.14313H45.8751V0.68222H35.6016Z" fill="#5A1404"/>
<path d="M134.573 18.1441C133.759 18.1441 133.098 18.8258 133.098 19.6124C133.098 20.4514 133.759 21.0806 134.573 21.0806C135.387 21.0806 135.997 20.3989 135.997 19.5599C136.048 18.8258 135.387 18.1441 134.573 18.1441ZM134.573 20.8709C133.912 20.8709 133.403 20.3465 133.403 19.6124C133.403 18.9307 133.912 18.4063 134.573 18.4063C135.234 18.4063 135.743 18.9307 135.743 19.6124C135.743 20.3465 135.234 20.8709 134.573 20.8709Z" fill="#5A1404"/>
<path d="M135.286 19.2453C135.286 18.8783 135.082 18.7209 134.675 18.7209H134.014V20.5038H134.319V19.7697H134.574L135.031 20.5038H135.336L134.879 19.7697C135.133 19.7173 135.286 19.56 135.286 19.2453ZM134.319 19.0356H134.624C134.879 19.0356 134.98 19.088 134.98 19.2978C134.98 19.56 134.828 19.56 134.574 19.56H134.319V19.0356Z" fill="#5A1404"/>
</svg>
